<svg id="Camada_1" data-name="Camada 1" xmlns="http://www.w3.org/2000/svg" viewBox="0 0 514.1 514"><defs><style>.cls-1{fill:#ff3464;}.cls-2{fill:#e6e9ed;}.cls-3{fill:#222d3d;}.cls-4{fill:#f3f3f3;}</style></defs><path class="cls-1" d="M567,297c-141.94,0-257,115.06-257,257H824C824,412.06,708.94,297,567,297Z" transform="translate(-310 -297)"/><path class="cls-2" d="M567.1,811c141.93,0,257-115.06,257-257h-514C310.1,695.94,425.16,811,567.1,811Z" transform="translate(-310 -297)"/><path class="cls-3" d="M310.1,554h.09q0,12.66,1.22,25H822.79c.79-8.23,1.21-16.56,1.21-25h-.1c0-8.44-.42-16.77-1.21-25H311.31C310.52,537.23,310.1,545.56,310.1,554Z" transform="translate(-310 -297)"/><circle class="cls-3" cx="257" cy="257" r="107"/><circle class="cls-4" cx="257" cy="257" r="79"/></svg>